<?xml version="1.0" encoding="UTF-8" standalone="no"?>
<!DOCTYPE svg PUBLIC "-//W3C//DTD SVG 1.1//EN"
 "http://www.w3.org/Graphics/SVG/1.1/DTD/svg11.dtd">
<!-- Generated by graphviz version 2.40.1 (20161225.0304)
 -->
<!-- Title: G Pages: 1 -->
<svg width="317pt" height="188pt"
 viewBox="0.00 0.00 316.52 188.00" xmlns="http://www.w3.org/2000/svg" xmlns:xlink="http://www.w3.org/1999/xlink">
<g id="graph0" class="graph" transform="scale(1 1) rotate(0) translate(4 184)">
<title>G</title>
<polygon fill="#ffffff" stroke="transparent" points="-4,4 -4,-184 312.5191,-184 312.5191,4 -4,4"/>
<!-- a -->
<g id="node1" class="node">
<title>a</title>
<ellipse fill="none" stroke="#000000" cx="101.6718" cy="-162" rx="101.8438" ry="18"/>
<text text-anchor="middle" x="101.6718" y="-157.8" font-family="Times,serif" font-size="14.00" fill="#000000">mail daily leaderboards</text>
</g>
<!-- b -->
<g id="node2" class="node">
<title>b</title>
<ellipse fill="none" stroke="#000000" cx="101.6718" cy="-90" rx="90.8742" ry="18"/>
<text text-anchor="middle" x="101.6718" y="-85.8" font-family="Times,serif" font-size="14.00" fill="#000000">update leader boards</text>
</g>
<!-- a&#45;&gt;b -->
<g id="edge1" class="edge">
<title>a&#45;&gt;b</title>
<path fill="none" stroke="#000000" d="M101.6718,-143.8314C101.6718,-136.131 101.6718,-126.9743 101.6718,-118.4166"/>
<polygon fill="#000000" stroke="#000000" points="105.1719,-118.4132 101.6718,-108.4133 98.1719,-118.4133 105.1719,-118.4132"/>
</g>
<!-- c -->
<g id="node3" class="node">
<title>c</title>
<ellipse fill="none" stroke="#000000" cx="180.6718" cy="-18" rx="59.6935" ry="18"/>
<text text-anchor="middle" x="180.6718" y="-13.8" font-family="Times,serif" font-size="14.00" fill="#000000">environment</text>
</g>
<!-- b&#45;&gt;c -->
<g id="edge2" class="edge">
<title>b&#45;&gt;c</title>
<path fill="none" stroke="#000000" d="M121.1999,-72.2022C131.2006,-63.0876 143.5193,-51.8605 154.3465,-41.9926"/>
<polygon fill="#000000" stroke="#000000" points="156.879,-44.4201 161.9123,-35.0972 152.1637,-39.2465 156.879,-44.4201"/>
</g>
<!-- d -->
<g id="node4" class="node">
<title>d</title>
<ellipse fill="none" stroke="#000000" cx="259.6718" cy="-90" rx="48.6951" ry="18"/>
<text text-anchor="middle" x="259.6718" y="-85.8" font-family="Times,serif" font-size="14.00" fill="#000000">flush data</text>
</g>
<!-- d&#45;&gt;c -->
<g id="edge3" class="edge">
<title>d&#45;&gt;c</title>
<path fill="none" stroke="#000000" d="M241.349,-73.3008C231.1275,-63.985 218.2198,-52.221 206.9399,-41.9406"/>
<polygon fill="#000000" stroke="#000000" points="209.1923,-39.2579 199.4437,-35.1086 204.4771,-44.4315 209.1923,-39.2579"/>
</g>
</g>
</svg>
