<svg width="137" height="40" viewBox="0 0 137 40" fill="none" xmlns="http://www.w3.org/2000/svg"><path fill-rule="evenodd" clip-rule="evenodd" d="M0 4C0 1.79086 1.79086 0 4 0H36C38.2091 0 40 1.79086 40 4V36C40 38.2091 38.2091 40 36 40H4C1.79086 40 0 38.2091 0 36V4ZM15 22V25.625C15 25.8321 15.1679 26 15.375 26H18.125C18.3321 26 18.5 25.8321 18.5 25.625V22V18.5V14.375C18.5 14.1679 18.3321 14 18.125 14H15.375C15.1679 14 15 14.1679 15 14.375V18.5H8.375C8.16789 18.5 8 18.6679 8 18.875V21.625C8 21.8321 8.16789 22 8.375 22H15ZM21.5 22.5V14.375C21.5 14.1679 21.6679 14 21.875 14H24.625C24.8321 14 25 14.1679 25 14.375V22.5C25 22.5 30.9843 22.5 31.625 22.5C31.8321 22.5 32 22.6679 32 22.875V25.625C32 25.8321 31.8321 26 31.625 26H25H21.875H21.75C21.6119 26 21.5 25.8881 21.5 25.75V25.625V22.5Z" fill="white"></path><path d="M58.807 27.79C58.807 28.0661 59.0309 28.29 59.307 28.29H62.769C63.0451 28.29 63.269 28.0661 63.269 27.79V16.1H67.599C67.8751 16.1 68.099 15.8761 68.099 15.6V12.69C68.099 12.4139 67.8751 12.19 67.599 12.19H54.5C54.2239 12.19 54 12.4139 54 12.69V15.6C54 15.8761 54.2239 16.1 54.5 16.1H58.807V27.79Z" fill="white"></path><path d="M73.8578 28.589C76.1112 28.589 77.7475 27.7406 78.9256 26.4321C79.1072 26.2305 79.0731 25.9209 78.8642 25.7477L77.1709 24.3447C76.9741 24.1817 76.6876 24.1953 76.4937 24.3619C75.7237 25.0232 74.9912 25.323 74.0648 25.323C72.7078 25.323 71.7188 24.633 71.3738 23.276H79.2368C79.4981 23.276 79.7152 23.0747 79.72 22.8135C79.7228 22.663 79.7228 22.5154 79.7228 22.379C79.7228 18.722 77.7448 15.571 73.4668 15.571C69.7868 15.571 67.1878 18.446 67.1878 22.08V22.126C67.1878 25.967 69.9478 28.589 73.8578 28.589ZM71.3048 21.045C71.5348 19.665 72.3168 18.791 73.4668 18.791C74.6628 18.791 75.4908 19.665 75.6518 21.045H71.3048Z" fill="white"></path><path d="M80.8681 27.79C80.8681 28.0661 81.092 28.29 81.3681 28.29H91.8911C92.1673 28.29 92.3911 28.0661 92.3911 27.79V25.317C92.3911 25.0409 92.1673 24.817 91.8911 24.817H86.6181L92.2548 18.8435C92.3424 18.7507 92.3911 18.6279 92.3911 18.5003V16.347C92.3911 16.0709 92.1673 15.847 91.8911 15.847H81.5751C81.299 15.847 81.0751 16.0709 81.0751 16.347V18.797C81.0751 19.0731 81.299 19.297 81.5751 19.297H86.5951L81.0031 25.2708C80.9164 25.3635 80.8681 25.4856 80.8681 25.6125V27.79Z" fill="white"></path><path d="M95.5002 27.79C95.5002 28.0661 95.724 28.29 96.0002 28.29H107.259C107.535 28.29 107.759 28.0661 107.759 27.79V24.88C107.759 24.6039 107.535 24.38 107.259 24.38H99.9622V12.69C99.9622 12.4139 99.7383 12.19 99.4622 12.19H96.0002C95.724 12.19 95.5002 12.4139 95.5002 12.69V27.79Z" fill="white"></path><path d="M113.007 28.566C114.64 28.566 115.813 27.922 116.687 26.979V27.79C116.687 28.0661 116.911 28.29 117.187 28.29H120.488C120.765 28.29 120.988 28.0661 120.988 27.79V21.137C120.988 19.389 120.597 18.101 119.654 17.181C118.665 16.192 117.147 15.663 114.916 15.663C112.989 15.663 111.584 15.9805 110.299 16.4641C110.059 16.5542 109.934 16.8157 110.006 17.0614L110.626 19.175C110.707 19.4526 111.006 19.6022 111.281 19.5103C112.216 19.1969 113.114 18.998 114.226 18.998C115.905 18.998 116.71 19.734 116.71 21.045V21.252C115.997 20.976 114.87 20.769 113.72 20.769C110.799 20.769 108.844 22.08 108.844 24.679V24.725C108.844 27.186 110.638 28.566 113.007 28.566ZM114.571 25.829C113.674 25.829 113.03 25.323 113.03 24.472V24.426C113.03 23.483 113.766 22.885 115.031 22.885C115.675 22.885 116.296 23.023 116.756 23.207V23.782C116.756 25.024 115.859 25.829 114.571 25.829Z" fill="white"></path><path d="M131.376 28.566C134.32 28.566 136.873 26.105 136.873 22.057V22.011C136.873 18.032 134.32 15.571 131.353 15.571C129.49 15.571 128.432 16.468 127.581 17.503V12C127.581 11.7239 127.357 11.5 127.081 11.5H123.711C123.435 11.5 123.211 11.7239 123.211 12V27.79C123.211 28.0661 123.435 28.29 123.711 28.29H127.081C127.357 28.29 127.581 28.0661 127.581 27.79V26.772C128.386 27.715 129.49 28.566 131.376 28.566ZM130.042 24.909C128.616 24.909 127.489 23.736 127.489 22.08V22.034C127.489 20.378 128.616 19.205 130.042 19.205C131.445 19.205 132.595 20.378 132.595 22.034V22.08C132.595 23.759 131.445 24.909 130.042 24.909Z" fill="white"></path></svg>