<?xml version="1.0" encoding="UTF-8" standalone="no"?>
<!DOCTYPE svg PUBLIC "-//W3C//DTD SVG 1.1//EN"
 "http://www.w3.org/Graphics/SVG/1.1/DTD/svg11.dtd">
<!-- Generated by graphviz version 2.40.1 (20161225.0304)
 -->
<!-- Title: deployment Pages: 1 -->
<svg width="243pt" height="310pt"
 viewBox="0.00 0.00 243.13 310.40" xmlns="http://www.w3.org/2000/svg" xmlns:xlink="http://www.w3.org/1999/xlink">
<g id="graph0" class="graph" transform="scale(1 1) rotate(0) translate(4 306.4)">
<title>deployment</title>
<polygon fill="#ffffff" stroke="transparent" points="-4,4 -4,-306.4 239.1268,-306.4 239.1268,4 -4,4"/>
<!-- Build Server -->
<g id="node1" class="node">
<title>Build Server</title>
<ellipse fill="none" stroke="#000000" cx="100.2214" cy="-284.4" rx="60.2303" ry="18"/>
<text text-anchor="middle" x="100.2214" y="-280.2" font-family="Times,serif" font-size="14.00" fill="#000000">Build Server</text>
</g>
<!-- Static Files -->
<g id="node2" class="node">
<title>Static Files</title>
<ellipse fill="none" stroke="#000000" cx="54.2214" cy="-195.6" rx="54.4437" ry="18"/>
<text text-anchor="middle" x="54.2214" y="-191.4" font-family="Times,serif" font-size="14.00" fill="#000000">Static Files</text>
</g>
<!-- Build Server&#45;&gt;Static Files -->
<g id="edge1" class="edge">
<title>Build Server&#45;&gt;Static Files</title>
<path fill="none" stroke="#000000" d="M90.9126,-266.43C84.4282,-253.9123 75.6611,-236.9879 68.3228,-222.8218"/>
<polygon fill="#000000" stroke="#000000" points="71.2238,-220.8127 63.5163,-213.5433 65.0083,-224.0326 71.2238,-220.8127"/>
<text text-anchor="middle" x="102.8273" y="-235.8" font-family="Times,serif" font-size="14.00" fill="#000000">Deploy</text>
</g>
<!-- Client -->
<g id="node3" class="node">
<title>Client</title>
<ellipse fill="none" stroke="#000000" cx="52.2214" cy="-106.8" rx="34.7864" ry="18"/>
<text text-anchor="middle" x="52.2214" y="-102.6" font-family="Times,serif" font-size="14.00" fill="#000000">Client</text>
</g>
<!-- Static Files&#45;&gt;Client -->
<g id="edge2" class="edge">
<title>Static Files&#45;&gt;Client</title>
<path fill="none" stroke="#000000" d="M51.4505,-177.3284C50.7132,-171.6609 50.0208,-165.3845 49.6554,-159.6 49.1542,-151.6658 49.2861,-143.0555 49.6799,-135.1352"/>
<polygon fill="#000000" stroke="#000000" points="53.1897,-135.0962 50.3444,-124.8906 46.2043,-134.6431 53.1897,-135.0962"/>
<text text-anchor="middle" x="85.0044" y="-147" font-family="Times,serif" font-size="14.00" fill="#000000">User Access</text>
</g>
<!-- Parse -->
<g id="node4" class="node">
<title>Parse</title>
<ellipse fill="none" stroke="#000000" cx="96.2214" cy="-18" rx="31.8973" ry="18"/>
<text text-anchor="middle" x="96.2214" y="-13.8" font-family="Times,serif" font-size="14.00" fill="#000000">Parse</text>
</g>
<!-- Client&#45;&gt;Parse -->
<g id="edge3" class="edge">
<title>Client&#45;&gt;Parse</title>
<path fill="none" stroke="#000000" d="M50.6401,-88.8134C50.4547,-78.1736 51.5704,-64.7255 56.8686,-54 59.6009,-48.4689 63.5765,-43.3784 67.9631,-38.8738"/>
<polygon fill="#000000" stroke="#000000" points="70.5893,-41.214 75.5867,-31.8717 65.8542,-36.0585 70.5893,-41.214"/>
<text text-anchor="middle" x="92.3978" y="-58.2" font-family="Times,serif" font-size="14.00" fill="#000000">Update Data</text>
</g>
<!-- Parse&#45;&gt;Build Server -->
<g id="edge4" class="edge">
<title>Parse&#45;&gt;Build Server</title>
<path fill="none" stroke="#000000" d="M113.5285,-33.1981C118.9929,-39.0831 124.351,-46.2677 127.2214,-54 157.29,-134.999 154.5435,-166.4338 127.2214,-248.4 126.0402,-251.9437 124.3584,-255.4194 122.4042,-258.729"/>
<polygon fill="#000000" stroke="#000000" points="119.4848,-256.7978 116.7518,-267.034 125.2717,-260.7363 119.4848,-256.7978"/>
<text text-anchor="middle" x="192.1741" y="-147" font-family="Times,serif" font-size="14.00" fill="#000000">Trigger Update</text>
</g>
</g>
</svg>
