<?xml version="1.0" encoding="UTF-8" standalone="no"?>
<!DOCTYPE svg PUBLIC "-//W3C//DTD SVG 1.1//EN"
 "http://www.w3.org/Graphics/SVG/1.1/DTD/svg11.dtd">
<!-- Generated by graphviz version 2.40.1 (20161225.0304)
 -->
<!-- Title: Dataflow Pages: 1 -->
<svg width="538pt" height="476pt"
 viewBox="0.00 0.00 537.54 476.00" xmlns="http://www.w3.org/2000/svg" xmlns:xlink="http://www.w3.org/1999/xlink">
<g id="graph0" class="graph" transform="scale(1 1) rotate(0) translate(4 472)">
<title>Dataflow</title>
<polygon fill="#ffffff" stroke="transparent" points="-4,4 -4,-472 533.5351,-472 533.5351,4 -4,4"/>
<!-- Header -->
<g id="node1" class="node">
<title>Header</title>
<text text-anchor="middle" x="65.5393" y="-445.8" font-family="Times,serif" font-size="14.00" fill="#000000">Timeline</text>
</g>
<!-- Release -->
<g id="node2" class="node">
<title>Release</title>
<text text-anchor="middle" x="65.5393" y="-373.8" font-family="Times,serif" font-size="14.00" fill="#000000">Release</text>
</g>
<!-- Header&#45;&gt;Release -->
<!-- Slow Data -->
<g id="node3" class="node">
<title>Slow Data</title>
<text text-anchor="middle" x="65.5393" y="-301.8" font-family="Times,serif" font-size="14.00" fill="#000000">Slow Data</text>
</g>
<!-- Release&#45;&gt;Slow Data -->
<g id="edge1" class="edge">
<title>Release&#45;&gt;Slow Data</title>
<path fill="none" stroke="#000000" d="M65.5393,-359.8314C65.5393,-352.131 65.5393,-342.9743 65.5393,-334.4166"/>
<polygon fill="#000000" stroke="#000000" points="69.0394,-334.4132 65.5393,-324.4133 62.0394,-334.4133 69.0394,-334.4132"/>
</g>
<!-- Medium Speed Data -->
<g id="node4" class="node">
<title>Medium Speed Data</title>
<text text-anchor="middle" x="65.5393" y="-229.8" font-family="Times,serif" font-size="14.00" fill="#000000">Medium Speed Data</text>
</g>
<!-- Slow Data&#45;&gt;Medium Speed Data -->
<g id="edge2" class="edge">
<title>Slow Data&#45;&gt;Medium Speed Data</title>
<path fill="none" stroke="#000000" d="M65.5393,-287.8314C65.5393,-280.131 65.5393,-270.9743 65.5393,-262.4166"/>
<polygon fill="#000000" stroke="#000000" points="69.0394,-262.4132 65.5393,-252.4133 62.0394,-262.4133 69.0394,-262.4132"/>
</g>
<!-- Fast Data -->
<g id="node5" class="node">
<title>Fast Data</title>
<text text-anchor="middle" x="65.5393" y="-157.8" font-family="Times,serif" font-size="14.00" fill="#000000">Fast Data</text>
</g>
<!-- Medium Speed Data&#45;&gt;Fast Data -->
<g id="edge3" class="edge">
<title>Medium Speed Data&#45;&gt;Fast Data</title>
<path fill="none" stroke="#000000" d="M65.5393,-215.8314C65.5393,-208.131 65.5393,-198.9743 65.5393,-190.4166"/>
<polygon fill="#000000" stroke="#000000" points="69.0394,-190.4132 65.5393,-180.4133 62.0394,-190.4133 69.0394,-190.4132"/>
</g>
<!-- Ephemera -->
<g id="node6" class="node">
<title>Ephemera</title>
<text text-anchor="middle" x="65.5393" y="-85.8" font-family="Times,serif" font-size="14.00" fill="#000000">Ephemera</text>
</g>
<!-- Fast Data&#45;&gt;Ephemera -->
<g id="edge4" class="edge">
<title>Fast Data&#45;&gt;Ephemera</title>
<path fill="none" stroke="#000000" d="M65.5393,-143.8314C65.5393,-136.131 65.5393,-126.9743 65.5393,-118.4166"/>
<polygon fill="#000000" stroke="#000000" points="69.0394,-118.4132 65.5393,-108.4133 62.0394,-118.4133 69.0394,-118.4132"/>
</g>
<!-- Session Data -->
<g id="node7" class="node">
<title>Session Data</title>
<text text-anchor="middle" x="65.5393" y="-13.8" font-family="Times,serif" font-size="14.00" fill="#000000">Session Data</text>
</g>
<!-- Ephemera&#45;&gt;Session Data -->
<g id="edge5" class="edge">
<title>Ephemera&#45;&gt;Session Data</title>
<path fill="none" stroke="#000000" d="M65.5393,-71.8314C65.5393,-64.131 65.5393,-54.9743 65.5393,-46.4166"/>
<polygon fill="#000000" stroke="#000000" points="69.0394,-46.4132 65.5393,-36.4133 62.0394,-46.4133 69.0394,-46.4132"/>
</g>
<!-- MHeader -->
<g id="node8" class="node">
<title>MHeader</title>
<text text-anchor="middle" x="159.5393" y="-445.8" font-family="Times,serif" font-size="14.00" fill="#000000">Marketing</text>
</g>
<!-- MData -->
<g id="node12" class="node">
<title>MData</title>
<polygon fill="#d3d3d3" stroke="#000000" points="201.0169,-396 118.0617,-396 118.0617,-360 201.0169,-360 201.0169,-396"/>
<text text-anchor="middle" x="159.5393" y="-373.8" font-family="Times,serif" font-size="14.00" fill="#000000">Data Model</text>
</g>
<!-- MHeader&#45;&gt;MData -->
<!-- PHeader -->
<g id="node9" class="node">
<title>PHeader</title>
<text text-anchor="middle" x="259.5393" y="-445.8" font-family="Times,serif" font-size="14.00" fill="#000000">Publishing</text>
</g>
<!-- PData -->
<g id="node13" class="node">
<title>PData</title>
<polygon fill="#d3d3d3" stroke="#000000" points="301.0169,-396 218.0617,-396 218.0617,-360 301.0169,-360 301.0169,-396"/>
<text text-anchor="middle" x="259.5393" y="-373.8" font-family="Times,serif" font-size="14.00" fill="#000000">Data Model</text>
</g>
<!-- PHeader&#45;&gt;PData -->
<!-- EHeader -->
<g id="node10" class="node">
<title>EHeader</title>
<text text-anchor="middle" x="375.5393" y="-445.8" font-family="Times,serif" font-size="14.00" fill="#000000">Commerce</text>
</g>
<!-- EData -->
<g id="node14" class="node">
<title>EData</title>
<polygon fill="#d3d3d3" stroke="#000000" points="417.0169,-396 334.0617,-396 334.0617,-360 417.0169,-360 417.0169,-396"/>
<text text-anchor="middle" x="375.5393" y="-373.8" font-family="Times,serif" font-size="14.00" fill="#000000">Data Model</text>
</g>
<!-- EHeader&#45;&gt;EData -->
<!-- SHeader -->
<g id="node11" class="node">
<title>SHeader</title>
<text text-anchor="middle" x="486.5393" y="-445.8" font-family="Times,serif" font-size="14.00" fill="#000000">Social</text>
</g>
<!-- SData -->
<g id="node15" class="node">
<title>SData</title>
<polygon fill="#d3d3d3" stroke="#000000" points="528.0169,-396 445.0617,-396 445.0617,-360 528.0169,-360 528.0169,-396"/>
<text text-anchor="middle" x="486.5393" y="-373.8" font-family="Times,serif" font-size="14.00" fill="#000000">Data Model</text>
</g>
<!-- SHeader&#45;&gt;SData -->
<!-- MPages -->
<g id="node16" class="node">
<title>MPages</title>
<polygon fill="#d3d3d3" stroke="#000000" points="186.5393,-324 132.5393,-324 132.5393,-288 186.5393,-288 186.5393,-324"/>
<text text-anchor="middle" x="159.5393" y="-301.8" font-family="Times,serif" font-size="14.00" fill="#000000">Pages</text>
</g>
<!-- MData&#45;&gt;MPages -->
<g id="edge11" class="edge">
<title>MData&#45;&gt;MPages</title>
<path fill="none" stroke="#000000" d="M159.5393,-359.8314C159.5393,-352.131 159.5393,-342.9743 159.5393,-334.4166"/>
<polygon fill="#000000" stroke="#000000" points="163.0394,-334.4132 159.5393,-324.4133 156.0394,-334.4133 163.0394,-334.4132"/>
</g>
<!-- PArticles -->
<g id="node17" class="node">
<title>PArticles</title>
<polygon fill="#d3d3d3" stroke="#000000" points="289.8529,-324 229.2257,-324 229.2257,-288 289.8529,-288 289.8529,-324"/>
<text text-anchor="middle" x="259.5393" y="-301.8" font-family="Times,serif" font-size="14.00" fill="#000000">Articles</text>
</g>
<!-- PData&#45;&gt;PArticles -->
<g id="edge13" class="edge">
<title>PData&#45;&gt;PArticles</title>
<path fill="none" stroke="#000000" d="M259.5393,-359.8314C259.5393,-352.131 259.5393,-342.9743 259.5393,-334.4166"/>
<polygon fill="#000000" stroke="#000000" points="263.0394,-334.4132 259.5393,-324.4133 256.0394,-334.4133 263.0394,-334.4132"/>
</g>
<!-- ECatalog -->
<g id="node18" class="node">
<title>ECatalog</title>
<polygon fill="#d3d3d3" stroke="#000000" points="428.6355,-324 322.4431,-324 322.4431,-288 428.6355,-288 428.6355,-324"/>
<text text-anchor="middle" x="375.5393" y="-301.8" font-family="Times,serif" font-size="14.00" fill="#000000">Product Catalog</text>
</g>
<!-- EData&#45;&gt;ECatalog -->
<g id="edge17" class="edge">
<title>EData&#45;&gt;ECatalog</title>
<path fill="none" stroke="#000000" d="M375.5393,-359.8314C375.5393,-352.131 375.5393,-342.9743 375.5393,-334.4166"/>
<polygon fill="#000000" stroke="#000000" points="379.0394,-334.4132 375.5393,-324.4133 372.0394,-334.4133 379.0394,-334.4132"/>
</g>
<!-- SUsers -->
<g id="node19" class="node">
<title>SUsers</title>
<polygon fill="none" stroke="#000000" points="513.5393,-324 459.5393,-324 459.5393,-288 513.5393,-288 513.5393,-324"/>
<text text-anchor="middle" x="486.5393" y="-301.8" font-family="Times,serif" font-size="14.00" fill="#000000">Users</text>
</g>
<!-- SData&#45;&gt;SUsers -->
<g id="edge22" class="edge">
<title>SData&#45;&gt;SUsers</title>
<path fill="none" stroke="#000000" d="M486.5393,-359.8314C486.5393,-352.131 486.5393,-342.9743 486.5393,-334.4166"/>
<polygon fill="#000000" stroke="#000000" points="490.0394,-334.4132 486.5393,-324.4133 483.0394,-334.4133 490.0394,-334.4132"/>
</g>
<!-- MEmail -->
<g id="node29" class="node">
<title>MEmail</title>
<polygon fill="none" stroke="#000000" points="186.923,-108 132.1556,-108 132.1556,-72 186.923,-72 186.923,-108"/>
<text text-anchor="middle" x="159.5393" y="-85.8" font-family="Times,serif" font-size="14.00" fill="#000000">Emails</text>
</g>
<!-- MPages&#45;&gt;MEmail -->
<g id="edge12" class="edge">
<title>MPages&#45;&gt;MEmail</title>
<path fill="none" stroke="#000000" d="M159.5393,-287.9555C159.5393,-250.3938 159.5393,-163.5541 159.5393,-118.4103"/>
<polygon fill="#000000" stroke="#000000" points="163.0394,-118.145 159.5393,-108.1451 156.0394,-118.1451 163.0394,-118.145"/>
</g>
<!-- PUsers -->
<g id="node20" class="node">
<title>PUsers</title>
<polygon fill="none" stroke="#000000" points="293.9104,-252 225.1682,-252 225.1682,-216 293.9104,-216 293.9104,-252"/>
<text text-anchor="middle" x="259.5393" y="-229.8" font-family="Times,serif" font-size="14.00" fill="#000000">Accounts</text>
</g>
<!-- PArticles&#45;&gt;PUsers -->
<g id="edge14" class="edge">
<title>PArticles&#45;&gt;PUsers</title>
<path fill="none" stroke="#000000" d="M259.5393,-287.8314C259.5393,-280.131 259.5393,-270.9743 259.5393,-262.4166"/>
<polygon fill="#000000" stroke="#000000" points="263.0394,-262.4132 259.5393,-252.4133 256.0394,-262.4133 263.0394,-262.4132"/>
</g>
<!-- EUsers -->
<g id="node21" class="node">
<title>EUsers</title>
<polygon fill="none" stroke="#000000" points="409.9104,-252 341.1682,-252 341.1682,-216 409.9104,-216 409.9104,-252"/>
<text text-anchor="middle" x="375.5393" y="-229.8" font-family="Times,serif" font-size="14.00" fill="#000000">Accounts</text>
</g>
<!-- ECatalog&#45;&gt;EUsers -->
<g id="edge18" class="edge">
<title>ECatalog&#45;&gt;EUsers</title>
<path fill="none" stroke="#000000" d="M375.5393,-287.8314C375.5393,-280.131 375.5393,-270.9743 375.5393,-262.4166"/>
<polygon fill="#000000" stroke="#000000" points="379.0394,-262.4132 375.5393,-252.4133 372.0394,-262.4133 379.0394,-262.4132"/>
</g>
<!-- SConnections -->
<g id="node22" class="node">
<title>SConnections</title>
<polygon fill="none" stroke="#000000" points="529.5309,-252 443.5477,-252 443.5477,-216 529.5309,-216 529.5309,-252"/>
<text text-anchor="middle" x="486.5393" y="-229.8" font-family="Times,serif" font-size="14.00" fill="#000000">Connections</text>
</g>
<!-- SUsers&#45;&gt;SConnections -->
<g id="edge23" class="edge">
<title>SUsers&#45;&gt;SConnections</title>
<path fill="none" stroke="#000000" d="M486.5393,-287.8314C486.5393,-280.131 486.5393,-270.9743 486.5393,-262.4166"/>
<polygon fill="#000000" stroke="#000000" points="490.0394,-262.4132 486.5393,-252.4133 483.0394,-262.4133 490.0394,-262.4132"/>
</g>
<!-- PComments -->
<g id="node23" class="node">
<title>PComments</title>
<polygon fill="none" stroke="#000000" points="297.7076,-180 221.371,-180 221.371,-144 297.7076,-144 297.7076,-180"/>
<text text-anchor="middle" x="259.5393" y="-157.8" font-family="Times,serif" font-size="14.00" fill="#000000">Comments</text>
</g>
<!-- PUsers&#45;&gt;PComments -->
<g id="edge15" class="edge">
<title>PUsers&#45;&gt;PComments</title>
<path fill="none" stroke="#000000" d="M259.5393,-215.8314C259.5393,-208.131 259.5393,-198.9743 259.5393,-190.4166"/>
<polygon fill="#000000" stroke="#000000" points="263.0394,-190.4132 259.5393,-180.4133 256.0394,-190.4133 263.0394,-190.4132"/>
</g>
<!-- EOrders -->
<g id="node24" class="node">
<title>EOrders</title>
<polygon fill="none" stroke="#000000" points="402.6264,-180 348.4522,-180 348.4522,-144 402.6264,-144 402.6264,-180"/>
<text text-anchor="middle" x="375.5393" y="-157.8" font-family="Times,serif" font-size="14.00" fill="#000000">Orders</text>
</g>
<!-- EUsers&#45;&gt;EOrders -->
<g id="edge19" class="edge">
<title>EUsers&#45;&gt;EOrders</title>
<path fill="none" stroke="#000000" d="M375.5393,-215.8314C375.5393,-208.131 375.5393,-198.9743 375.5393,-190.4166"/>
<polygon fill="#000000" stroke="#000000" points="379.0394,-190.4132 375.5393,-180.4133 372.0394,-190.4133 379.0394,-190.4132"/>
</g>
<!-- SContent -->
<g id="node25" class="node">
<title>SContent</title>
<polygon fill="#d3d3d3" stroke="#000000" points="516.8726,-180 456.206,-180 456.206,-144 516.8726,-144 516.8726,-180"/>
<text text-anchor="middle" x="486.5393" y="-157.8" font-family="Times,serif" font-size="14.00" fill="#000000">Content</text>
</g>
<!-- SConnections&#45;&gt;SContent -->
<g id="edge24" class="edge">
<title>SConnections&#45;&gt;SContent</title>
<path fill="none" stroke="#000000" d="M486.5393,-215.8314C486.5393,-208.131 486.5393,-198.9743 486.5393,-190.4166"/>
<polygon fill="#000000" stroke="#000000" points="490.0394,-190.4132 486.5393,-180.4133 483.0394,-190.4133 490.0394,-190.4132"/>
</g>
<!-- PShared -->
<g id="node26" class="node">
<title>PShared</title>
<polygon fill="none" stroke="#000000" points="303.1916,-108 215.887,-108 215.887,-72 303.1916,-72 303.1916,-108"/>
<text text-anchor="middle" x="259.5393" y="-85.8" font-family="Times,serif" font-size="14.00" fill="#000000">Most Shared</text>
</g>
<!-- PComments&#45;&gt;PShared -->
<g id="edge16" class="edge">
<title>PComments&#45;&gt;PShared</title>
<path fill="none" stroke="#000000" d="M259.5393,-143.8314C259.5393,-136.131 259.5393,-126.9743 259.5393,-118.4166"/>
<polygon fill="#000000" stroke="#000000" points="263.0394,-118.4132 259.5393,-108.4133 256.0394,-118.4133 263.0394,-118.4132"/>
</g>
<!-- ECross -->
<g id="node27" class="node">
<title>ECross</title>
<polygon fill="none" stroke="#000000" points="429.9699,-108 321.1087,-108 321.1087,-72 429.9699,-72 429.9699,-108"/>
<text text-anchor="middle" x="375.5393" y="-85.8" font-family="Times,serif" font-size="14.00" fill="#000000">Product Clusters</text>
</g>
<!-- EOrders&#45;&gt;ECross -->
<g id="edge20" class="edge">
<title>EOrders&#45;&gt;ECross</title>
<path fill="none" stroke="#000000" d="M375.5393,-143.8314C375.5393,-136.131 375.5393,-126.9743 375.5393,-118.4166"/>
<polygon fill="#000000" stroke="#000000" points="379.0394,-118.4132 375.5393,-108.4133 372.0394,-118.4133 379.0394,-118.4132"/>
</g>
<!-- SComments -->
<g id="node28" class="node">
<title>SComments</title>
<polygon fill="none" stroke="#000000" points="524.7076,-108 448.371,-108 448.371,-72 524.7076,-72 524.7076,-108"/>
<text text-anchor="middle" x="486.5393" y="-85.8" font-family="Times,serif" font-size="14.00" fill="#000000">Comments</text>
</g>
<!-- SContent&#45;&gt;SComments -->
<g id="edge25" class="edge">
<title>SContent&#45;&gt;SComments</title>
<path fill="none" stroke="#000000" d="M486.5393,-143.8314C486.5393,-136.131 486.5393,-126.9743 486.5393,-118.4166"/>
<polygon fill="#000000" stroke="#000000" points="490.0394,-118.4132 486.5393,-108.4133 483.0394,-118.4133 490.0394,-118.4132"/>
</g>
<!-- ECart -->
<g id="node30" class="node">
<title>ECart</title>
<polygon fill="none" stroke="#000000" points="402.5393,-36 348.5393,-36 348.5393,0 402.5393,0 402.5393,-36"/>
<text text-anchor="middle" x="375.5393" y="-13.8" font-family="Times,serif" font-size="14.00" fill="#000000">Cart</text>
</g>
<!-- ECross&#45;&gt;ECart -->
<g id="edge21" class="edge">
<title>ECross&#45;&gt;ECart</title>
<path fill="none" stroke="#000000" d="M375.5393,-71.8314C375.5393,-64.131 375.5393,-54.9743 375.5393,-46.4166"/>
<polygon fill="#000000" stroke="#000000" points="379.0394,-46.4132 375.5393,-36.4133 372.0394,-46.4133 379.0394,-46.4132"/>
</g>
<!-- SChat -->
<g id="node31" class="node">
<title>SChat</title>
<polygon fill="none" stroke="#000000" points="513.5393,-36 459.5393,-36 459.5393,0 513.5393,0 513.5393,-36"/>
<text text-anchor="middle" x="486.5393" y="-13.8" font-family="Times,serif" font-size="14.00" fill="#000000">Chat</text>
</g>
<!-- SComments&#45;&gt;SChat -->
<g id="edge26" class="edge">
<title>SComments&#45;&gt;SChat</title>
<path fill="none" stroke="#000000" d="M486.5393,-71.8314C486.5393,-64.131 486.5393,-54.9743 486.5393,-46.4166"/>
<polygon fill="#000000" stroke="#000000" points="490.0394,-46.4132 486.5393,-36.4133 483.0394,-46.4133 490.0394,-46.4132"/>
</g>
</g>
</svg>
