<?xml version="1.0" encoding="UTF-8" standalone="no"?>
<!DOCTYPE svg PUBLIC "-//W3C//DTD SVG 1.1//EN"
 "http://www.w3.org/Graphics/SVG/1.1/DTD/svg11.dtd">
<!-- Generated by graphviz version 2.40.1 (20161225.0304)
 -->
<!-- Title: Routing Pages: 1 -->
<svg width="435pt" height="152pt"
 viewBox="0.00 0.00 434.89 152.00" xmlns="http://www.w3.org/2000/svg" xmlns:xlink="http://www.w3.org/1999/xlink">
<g id="graph0" class="graph" transform="scale(1 1) rotate(0) translate(4 148)">
<title>Routing</title>
<polygon fill="#ffffff" stroke="transparent" points="-4,4 -4,-148 430.8941,-148 430.8941,4 -4,4"/>
<!-- b -->
<g id="node1" class="node">
<title>b</title>
<ellipse fill="none" stroke="#000000" cx="34.0934" cy="-99" rx="34.1871" ry="18"/>
<text text-anchor="middle" x="34.0934" y="-94.8" font-family="Times,serif" font-size="14.00" fill="#000000">router</text>
</g>
<!-- c -->
<g id="node2" class="node">
<title>c</title>
<ellipse fill="none" stroke="#000000" cx="152.7628" cy="-126" rx="48.652" ry="18"/>
<text text-anchor="middle" x="152.7628" y="-121.8" font-family="Times,serif" font-size="14.00" fill="#000000">controller</text>
</g>
<!-- b&#45;&gt;c -->
<g id="edge1" class="edge">
<title>b&#45;&gt;c</title>
<path fill="none" stroke="#000000" d="M65.5831,-106.1646C76.5265,-108.6545 89.1043,-111.5162 101.2386,-114.2771"/>
<polygon fill="#000000" stroke="#000000" points="100.7541,-117.7562 111.2815,-116.562 102.3072,-110.9307 100.7541,-117.7562"/>
</g>
<!-- g -->
<g id="node3" class="node">
<title>g</title>
<ellipse fill="none" stroke="#000000" cx="152.7628" cy="-72" rx="48.652" ry="18"/>
<text text-anchor="middle" x="152.7628" y="-67.8" font-family="Times,serif" font-size="14.00" fill="#000000">controller</text>
</g>
<!-- b&#45;&gt;g -->
<g id="edge5" class="edge">
<title>b&#45;&gt;g</title>
<path fill="none" stroke="#000000" d="M65.5831,-91.8354C76.5265,-89.3455 89.1043,-86.4838 101.2386,-83.7229"/>
<polygon fill="#000000" stroke="#000000" points="102.3072,-87.0693 111.2815,-81.438 100.7541,-80.2438 102.3072,-87.0693"/>
</g>
<!-- e -->
<g id="node4" class="node">
<title>e</title>
<ellipse fill="none" stroke="#000000" cx="152.7628" cy="-18" rx="45.7829" ry="18"/>
<text text-anchor="middle" x="152.7628" y="-13.8" font-family="Times,serif" font-size="14.00" fill="#000000">datastore</text>
</g>
<!-- c&#45;&gt;e -->
<g id="edge2" class="edge">
<title>c&#45;&gt;e</title>
<path fill="none" stroke="#000000" d="M115.5211,-114.4279C104.0821,-108.9291 92.7803,-101.061 86.1869,-90 77.9944,-76.2565 77.9944,-67.7435 86.1869,-54 91.2303,-45.5393 99.0284,-38.9468 107.5356,-33.8538"/>
<polygon fill="#000000" stroke="#000000" points="109.369,-36.8436 116.5719,-29.0738 106.0958,-30.656 109.369,-36.8436"/>
</g>
<!-- d -->
<g id="node5" class="node">
<title>d</title>
<ellipse fill="none" stroke="#000000" cx="281.627" cy="-126" rx="44.0775" ry="18"/>
<text text-anchor="middle" x="281.627" y="-121.8" font-family="Times,serif" font-size="14.00" fill="#000000">template</text>
</g>
<!-- c&#45;&gt;d -->
<g id="edge3" class="edge">
<title>c&#45;&gt;d</title>
<path fill="none" stroke="#000000" d="M201.4808,-126C209.7909,-126 218.4724,-126 226.9251,-126"/>
<polygon fill="#000000" stroke="#000000" points="227.0819,-129.5001 237.0819,-126 227.0819,-122.5001 227.0819,-129.5001"/>
</g>
<!-- g&#45;&gt;e -->
<g id="edge6" class="edge">
<title>g&#45;&gt;e</title>
<path fill="none" stroke="#000000" d="M152.7628,-53.7902C152.7628,-51.3082 152.7628,-48.8262 152.7628,-46.3443"/>
<polygon fill="#000000" stroke="#000000" points="156.2629,-46.1406 152.7628,-36.1406 149.2629,-46.1407 156.2629,-46.1406"/>
</g>
<!-- h -->
<g id="node6" class="node">
<title>h</title>
<ellipse fill="none" stroke="#000000" cx="281.627" cy="-72" rx="44.0775" ry="18"/>
<text text-anchor="middle" x="281.627" y="-67.8" font-family="Times,serif" font-size="14.00" fill="#000000">template</text>
</g>
<!-- g&#45;&gt;h -->
<g id="edge7" class="edge">
<title>g&#45;&gt;h</title>
<path fill="none" stroke="#000000" d="M201.4808,-72C209.7909,-72 218.4724,-72 226.9251,-72"/>
<polygon fill="#000000" stroke="#000000" points="227.0819,-75.5001 237.0819,-72 227.0819,-68.5001 227.0819,-75.5001"/>
</g>
<!-- i -->
<g id="node7" class="node">
<title>i</title>
<ellipse fill="none" stroke="#000000" cx="394.4047" cy="-99" rx="32.4788" ry="18"/>
<text text-anchor="middle" x="394.4047" y="-94.8" font-family="Times,serif" font-size="14.00" fill="#000000">result</text>
</g>
<!-- d&#45;&gt;i -->
<g id="edge4" class="edge">
<title>d&#45;&gt;i</title>
<path fill="none" stroke="#000000" d="M319.8084,-116.859C330.9632,-114.1885 343.183,-111.2629 354.4448,-108.5668"/>
<polygon fill="#000000" stroke="#000000" points="355.5497,-111.9012 364.46,-106.169 353.9198,-105.0936 355.5497,-111.9012"/>
</g>
<!-- h&#45;&gt;i -->
<g id="edge8" class="edge">
<title>h&#45;&gt;i</title>
<path fill="none" stroke="#000000" d="M319.8084,-81.141C330.9632,-83.8115 343.183,-86.7371 354.4448,-89.4332"/>
<polygon fill="#000000" stroke="#000000" points="353.9198,-92.9064 364.46,-91.831 355.5497,-86.0988 353.9198,-92.9064"/>
</g>
</g>
</svg>
