<?xml version="1.0" encoding="UTF-8" standalone="no"?>
<!DOCTYPE svg PUBLIC "-//W3C//DTD SVG 1.1//EN"
 "http://www.w3.org/Graphics/SVG/1.1/DTD/svg11.dtd">
<!-- Generated by graphviz version 2.40.1 (20161225.0304)
 -->
<!-- Title: G Pages: 1 -->
<svg width="256pt" height="260pt"
 viewBox="0.00 0.00 255.72 260.00" xmlns="http://www.w3.org/2000/svg" xmlns:xlink="http://www.w3.org/1999/xlink">
<g id="graph0" class="graph" transform="scale(1 1) rotate(0) translate(4 256)">
<title>G</title>
<polygon fill="#ffffff" stroke="transparent" points="-4,4 -4,-256 251.7153,-256 251.7153,4 -4,4"/>
<!-- app -->
<g id="node1" class="node">
<title>app</title>
<polygon fill="none" stroke="#000000" points="142.5118,-252 1.0962,-252 1.0962,-216 142.5118,-216 142.5118,-252"/>
<text text-anchor="middle" x="71.804" y="-229.8" font-family="Times,serif" font-size="14.00" fill="#000000">Static Middleman Site</text>
</g>
<!-- admin -->
<g id="node2" class="node">
<title>admin</title>
<polygon fill="none" stroke="#000000" points="155.4125,-36 .1955,-36 .1955,0 155.4125,0 155.4125,-36"/>
<text text-anchor="middle" x="77.804" y="-13.8" font-family="Times,serif" font-size="14.00" fill="#000000">Admin JS FrontEnd App</text>
</g>
<!-- admin&#45;&gt;app -->
<g id="edge5" class="edge">
<title>admin&#45;&gt;app</title>
<path fill="none" stroke="#000000" d="M66.916,-36.2867C61.5111,-46.4291 55.5595,-59.4895 52.804,-72 42.581,-118.4149 53.9292,-173.6011 62.9582,-206.1073"/>
<polygon fill="#000000" stroke="#000000" points="59.6297,-207.1961 65.7779,-215.8245 66.3523,-205.2453 59.6297,-207.1961"/>
</g>
<!-- api -->
<g id="node3" class="node">
<title>api</title>
<polygon fill="none" stroke="#000000" points="183.5407,-108 62.0673,-108 62.0673,-72 183.5407,-72 183.5407,-108"/>
<text text-anchor="middle" x="122.804" y="-85.8" font-family="Times,serif" font-size="14.00" fill="#000000">Sinatra API Server</text>
</g>
<!-- admin&#45;&gt;api -->
<g id="edge4" class="edge">
<title>admin&#45;&gt;api</title>
<path fill="none" stroke="#000000" d="M89.1594,-36.1686C94.2366,-44.2921 100.3267,-54.0363 105.9216,-62.9882"/>
<polygon fill="#000000" stroke="#000000" points="103.0277,-64.9617 111.2957,-71.5867 108.9637,-61.2517 103.0277,-64.9617"/>
</g>
<!-- api&#45;&gt;app -->
<g id="edge3" class="edge">
<title>api&#45;&gt;app</title>
<path fill="none" stroke="#000000" d="M109.9668,-108.2225C103.3705,-118.3461 95.7094,-131.409 90.804,-144 83.0018,-164.0264 78.1519,-187.8709 75.3065,-205.9839"/>
<polygon fill="#000000" stroke="#000000" points="71.8382,-205.5131 73.8556,-215.9141 78.7646,-206.5252 71.8382,-205.5131"/>
</g>
<!-- cmds -->
<g id="node4" class="node">
<title>cmds</title>
<polygon fill="none" stroke="#000000" points="247.6267,-180 99.9813,-180 99.9813,-144 247.6267,-144 247.6267,-180"/>
<text text-anchor="middle" x="173.804" y="-157.8" font-family="Times,serif" font-size="14.00" fill="#000000">Middleman Commands</text>
</g>
<!-- api&#45;&gt;cmds -->
<g id="edge2" class="edge">
<title>api&#45;&gt;cmds</title>
<path fill="none" stroke="#000000" d="M135.6735,-108.1686C141.4875,-116.3768 148.4736,-126.2394 154.8686,-135.2677"/>
<polygon fill="#000000" stroke="#000000" points="152.125,-137.4495 160.7613,-143.5867 157.8371,-133.4034 152.125,-137.4495"/>
</g>
<!-- cmds&#45;&gt;app -->
<g id="edge1" class="edge">
<title>cmds&#45;&gt;app</title>
<path fill="none" stroke="#000000" d="M148.0651,-180.1686C135.2603,-189.2073 119.6131,-200.2524 105.8321,-209.9802"/>
<polygon fill="#000000" stroke="#000000" points="103.686,-207.2109 97.5347,-215.8372 107.7228,-212.9297 103.686,-207.2109"/>
</g>
</g>
</svg>
