<svg xmlns="http://www.w3.org/2000/svg" viewBox="0 0 330 50" width="330" height="50" preserveAspectRatio="xMidYMid meet" style="width: 100%; height: 100%; transform: translate3d(0px, 0px, 0px);"><defs><clipPath id="__lottie_element_2"><rect width="330" height="50" x="0" y="0"></rect></clipPath></defs><g clip-path="url(#__lottie_element_2)"><g transform="matrix(1,0,0,1,6,11)" opacity="1" style="display: block;"><g opacity="1" transform="matrix(1,0,0,1,39.861000061035156,14.16100025177002)"><path fill="rgb(255,255,255)" fill-opacity="1" d=" M13.399999618530273,12.53600025177002 C13.399999618530273,12.53600025177002 3.687999963760376,-12.491999626159668 3.687999963760376,-12.491999626159668 C3.5290000438690186,-12.940999984741211 3.3440001010894775,-13.276000022888184 3.132999897003174,-13.50100040435791 C2.9200000762939453,-13.723999977111816 2.6019999980926514,-13.83899974822998 2.180000066757202,-13.83899974822998 C2.180000066757202,-13.83899974822998 -2.180999994277954,-13.83899974822998 -2.180999994277954,-13.83899974822998 C-2.6040000915527344,-13.83899974822998 -2.921999931335449,-13.723999977111816 -3.131999969482422,-13.50100040435791 C-3.3440001010894775,-13.276000022888184 -3.5290000438690186,-12.940999984741211 -3.687999963760376,-12.491999626159668 C-3.687999963760376,-12.491999626159668 -13.399999618530273,12.53600025177002 -13.399999618530273,12.53600025177002 C-13.427000045776367,12.61400032043457 -13.440999984741211,12.708000183105469 -13.440999984741211,12.814000129699707 C-13.440999984741211,13.102999687194824 -13.335000038146973,13.354999542236328 -13.12399959564209,13.565999984741211 C-12.913000106811523,13.777000427246094 -12.66100025177002,13.883000373840332 -12.369999885559082,13.883000373840332 C-12.369999885559082,13.883000373840332 -9.515999794006348,13.883000373840332 -9.515999794006348,13.883000373840332 C-8.987000465393066,13.883000373840332 -8.616999626159668,13.770999908447266 -8.406000137329102,13.545999526977539 C-8.194000244140625,13.321999549865723 -8.048999786376953,13.104000091552734 -7.968999862670898,12.892999649047852 C-7.968999862670898,12.892999649047852 -6.264999866485596,8.496999740600586 -6.264999866485596,8.496999740600586 C-6.264999866485596,8.496999740600586 6.263999938964844,8.496999740600586 6.263999938964844,8.496999740600586 C6.263999938964844,8.496999740600586 7.968999862670898,12.892999649047852 7.968999862670898,12.892999649047852 C8.04800033569336,13.104000091552734 8.192999839782715,13.321999549865723 8.406000137329102,13.545999526977539 C8.616000175476074,13.770999908447266 8.986000061035156,13.883000373840332 9.515999794006348,13.883000373840332 C9.515999794006348,13.883000373840332 12.368000030517578,13.883000373840332 12.368000030517578,13.883000373840332 C12.65999984741211,13.883000373840332 12.911999702453613,13.777000427246094 13.12399959564209,13.565999984741211 C13.333999633789062,13.354999542236328 13.440999984741211,13.102999687194824 13.440999984741211,12.814000129699707 C13.440999984741211,12.708000183105469 13.425999641418457,12.61400032043457 13.399999618530273,12.53600025177002z M-4.361000061035156,3.5460000038146973 C-4.361000061035156,3.5460000038146973 -0.0010000000474974513,-7.739999771118164 -0.0010000000474974513,-7.739999771118164 C-0.0010000000474974513,-7.739999771118164 4.361000061035156,3.5460000038146973 4.361000061035156,3.5460000038146973 C4.361000061035156,3.5460000038146973 -4.361000061035156,3.5460000038146973 -4.361000061035156,3.5460000038146973z"></path></g></g><g transform="matrix(1,0,0,1,6,11)" opacity="1" style="display: block;"><g opacity="1" transform="matrix(1,0,0,1,225.70599365234375,14)"><path fill="rgb(255,255,255)" fill-opacity="1" d=" M6.330999851226807,5.252999782562256 C6.383999824523926,4.909999847412109 6.521999835968018,4.6519999504089355 6.747000217437744,4.48199987411499 C6.9710001945495605,4.310999870300293 7.2170000076293945,4.223999977111816 7.480999946594238,4.223999977111816 C7.480999946594238,4.223999977111816 10.692000389099121,4.223999977111816 10.692000389099121,4.223999977111816 C10.982999801635742,4.223999977111816 11.241000175476074,4.322000026702881 11.465999603271484,4.521999835968018 C11.689000129699707,4.71999979019165 11.788000106811523,4.97599983215332 11.762999534606934,5.293000221252441 C11.6850004196167,6.375999927520752 11.411999702453613,7.456999778747559 10.949999809265137,8.539999961853027 C10.486000061035156,9.623000144958496 9.779999732971191,10.600000381469727 8.829000473022461,11.470999717712402 C7.877999782562256,12.342000007629395 6.675000190734863,13.055000305175781 5.2210001945495605,13.607999801635742 C3.7679998874664307,14.163999557495117 2.009999990463257,14.440999984741211 -0.052000001072883606,14.440999984741211 C-1.8760000467300415,14.440999984741211 -3.48799991607666,14.168999671936035 -4.888999938964844,13.628999710083008 C-6.290999889373779,13.08899974822998 -7.480000019073486,12.335000038146973 -8.456999778747559,11.371000289916992 C-9.435999870300293,10.409000396728516 -10.196000099182129,9.253000259399414 -10.737000465393066,7.906000137329102 C-11.279000282287598,6.559999942779541 -11.602999687194824,5.09499979019165 -11.708000183105469,3.510999917984009 C-11.762999534606934,2.506999969482422 -11.788000106811523,1.3990000486373901 -11.788000106811523,0.1850000023841858 C-11.788000106811523,-1.031000018119812 -11.762999534606934,-2.1389999389648438 -11.708000183105469,-3.1429998874664307 C-11.602999687194824,-4.72599983215332 -11.279000282287598,-6.191999912261963 -10.737000465393066,-7.539000034332275 C-10.196000099182129,-8.885000228881836 -9.435999870300293,-10.038999557495117 -8.456999778747559,-11.001999855041504 C-7.480000019073486,-11.965999603271484 -6.290999889373779,-12.720000267028809 -4.888999938964844,-13.26099967956543 C-3.48799991607666,-13.800999641418457 -1.8760000467300415,-14.071999549865723 -0.052000001072883606,-14.071999549865723 C2.009999990463257,-14.071000099182129 3.7679998874664307,-13.793999671936035 5.2210001945495605,-13.241000175476074 C6.675000190734863,-12.685999870300293 7.877999782562256,-11.973999977111816 8.829000473022461,-11.10200023651123 C9.779999732971191,-10.230999946594238 10.486000061035156,-9.248000144958496 10.949999809265137,-8.152000427246094 C11.411999702453613,-7.056000232696533 11.6850004196167,-5.980000019073486 11.762999534606934,-4.925000190734863 C11.788000106811523,-4.607999801635742 11.689000129699707,-4.348999977111816 11.465999603271484,-4.1519999504089355 C11.241000175476074,-3.9549999237060547 10.982999801635742,-3.8550000190734863 10.692000389099121,-3.8550000190734863 C10.692000389099121,-3.8550000190734863 7.480999946594238,-3.8550000190734863 7.480999946594238,-3.8550000190734863 C7.2170000076293945,-3.8550000190734863 6.966000080108643,-3.940000057220459 6.7270002365112305,-4.11299991607666 C6.489999771118164,-4.284999847412109 6.34499979019165,-4.539999961853027 6.291999816894531,-4.885000228881836 C6.211999893188477,-5.4120001792907715 6.0269999504089355,-5.927999973297119 5.736000061035156,-6.429999828338623 C5.443999767303467,-6.929999828338623 5.048999786376953,-7.379000186920166 4.546999931335449,-7.776000022888184 C4.045000076293945,-8.17199993133545 3.4100000858306885,-8.494000434875488 2.6440000534057617,-8.746000289916992 C1.8760000467300415,-8.996999740600586 0.9779999852180481,-9.121000289916992 -0.052000001072883606,-9.121999740600586 C-1.0829999446868896,-9.121999740600586 -1.9819999933242798,-8.96399974822998 -2.747999906539917,-8.647000312805176 C-3.515000104904175,-8.329999923706055 -4.15500020980835,-7.9079999923706055 -4.671000003814697,-7.379000186920166 C-5.186999797821045,-6.8520002365112305 -5.583000183105469,-6.2179999351501465 -5.860000133514404,-5.479000091552734 C-6.138000011444092,-4.739999771118164 -6.303999900817871,-3.9600000381469727 -6.35699987411499,-3.1429998874664307 C-6.408999919891357,-2.1389999389648438 -6.435999870300293,-1.031000018119812 -6.435999870300293,0.1850000023841858 C-6.435999870300293,1.3990000486373901 -6.408999919891357,2.506999969482422 -6.35699987411499,3.510999917984009 C-6.303999900817871,4.35699987411499 -6.138000011444092,5.140999794006348 -5.860000133514404,5.868000030517578 C-5.583000183105469,6.593999862670898 -5.186999797821045,7.21999979019165 -4.671000003814697,7.749000072479248 C-4.15500020980835,8.277000427246094 -3.515000104904175,8.697999954223633 -2.747999906539917,9.015000343322754 C-1.9819999933242798,9.331999778747559 -1.0829999446868896,9.491000175476074 -0.052000001072883606,9.491000175476074 C0.9779999852180481,9.491000175476074 1.8760000467300415,9.364999771118164 2.6429998874664307,9.11400032043457 C3.4100000858306885,8.86299991607666 4.052000045776367,8.539999961853027 4.565000057220459,8.144000053405762 C5.081999778747559,7.749000072479248 5.484000205993652,7.298999786376953 5.776000022888184,6.797999858856201 C6.065999984741211,6.296000003814697 6.251999855041504,5.781000137329102 6.330999851226807,5.252999782562256z"></path></g></g><g transform="matrix(1,0,0,1,6,11)" opacity="1" style="display: block;"><g opacity="1" transform="matrix(1,0,0,1,11.33899974822998,14.161999702453613)"><path fill="rgb(255,255,255)" fill-opacity="1" d=" M11.020999908447266,-13.520999908447266 C10.809000015258789,-13.732000350952148 10.559000015258789,-13.838000297546387 10.267999649047852,-13.838000297546387 C10.267999649047852,-13.838000297546387 7.057000160217285,-13.838000297546387 7.057000160217285,-13.838000297546387 C6.764999866485596,-13.838000297546387 6.514999866485596,-13.732000350952148 6.303999900817871,-13.520999908447266 C6.0920000076293945,-13.3100004196167 5.986000061035156,-13.059000015258789 5.986000061035156,-12.767999649047852 C5.986000061035156,-12.767999649047852 5.986000061035156,-2.5899999141693115 5.986000061035156,-2.5899999141693115 C5.986000061035156,-2.5899999141693115 -5.986999988555908,-2.5899999141693115 -5.986999988555908,-2.5899999141693115 C-5.986999988555908,-2.5899999141693115 -5.986999988555908,-12.767999649047852 -5.986999988555908,-12.767999649047852 C-5.986999988555908,-13.059000015258789 -6.0929999351501465,-13.3100004196167 -6.303999900817871,-13.522000312805176 C-6.515999794006348,-13.732000350952148 -6.767000198364258,-13.838000297546387 -7.058000087738037,-13.838000297546387 C-7.058000087738037,-13.838000297546387 -10.269000053405762,-13.838000297546387 -10.269000053405762,-13.838000297546387 C-10.5600004196167,-13.838000297546387 -10.812000274658203,-13.732000350952148 -11.02299976348877,-13.522000312805176 C-11.234000205993652,-13.3100004196167 -11.34000015258789,-13.059000015258789 -11.34000015258789,-12.767999649047852 C-11.34000015258789,-12.767999649047852 -11.34000015258789,12.814000129699707 -11.34000015258789,12.814000129699707 C-11.34000015258789,13.131999969482422 -11.234000205993652,13.387999534606934 -11.02299976348877,13.586999893188477 C-10.812000274658203,13.784000396728516 -10.5600004196167,13.883000373840332 -10.269000053405762,13.883000373840332 C-10.269000053405762,13.883000373840332 -7.058000087738037,13.883000373840332 -7.058000087738037,13.883000373840332 C-6.767000198364258,13.883000373840332 -6.515999794006348,13.777000427246094 -6.304999828338623,13.565999984741211 C-6.0929999351501465,13.355999946594238 -5.986999988555908,13.104000091552734 -5.986999988555908,12.814000129699707 C-5.986999988555908,12.814000129699707 -5.986999988555908,2.359999895095825 -5.986999988555908,2.359999895095825 C-5.986999988555908,2.359999895095825 5.986000061035156,2.359999895095825 5.986000061035156,2.359999895095825 C5.986000061035156,2.359999895095825 5.986000061035156,12.814000129699707 5.986000061035156,12.814000129699707 C5.986000061035156,13.104000091552734 6.0920000076293945,13.355999946594238 6.302999973297119,13.565999984741211 C6.514999866485596,13.777000427246094 6.764999866485596,13.883000373840332 7.057000160217285,13.883000373840332 C7.057000160217285,13.883000373840332 10.267999649047852,13.883000373840332 10.267999649047852,13.883000373840332 C10.559000015258789,13.883000373840332 10.809000015258789,13.777000427246094 11.020999908447266,13.565999984741211 C11.232999801635742,13.355999946594238 11.33899974822998,13.104000091552734 11.33899974822998,12.814000129699707 C11.33899974822998,12.814000129699707 11.33899974822998,-12.767999649047852 11.33899974822998,-12.767999649047852 C11.33899974822998,-13.059000015258789 11.232999801635742,-13.3100004196167 11.020999908447266,-13.520999908447266z"></path></g></g><g transform="matrix(1,0,0,1,6,11)" opacity="1" style="display: block;"><g opacity="1" transform="matrix(1,0,0,1,252.88299560546875,14)"><path fill="rgb(255,255,255)" fill-opacity="1" d=" M-11.656999588012695,-3.3399999141693115 C-11.576000213623047,-4.817999839782715 -11.293999671936035,-6.210999965667725 -10.803999900817871,-7.51800012588501 C-10.3149995803833,-8.824999809265137 -9.593999862670898,-9.958999633789062 -8.642999649047852,-10.923999786376953 C-7.691999912261963,-11.887999534606934 -6.502999782562256,-12.652999877929688 -5.074999809265137,-13.220999717712402 C-3.6480000019073486,-13.788999557495117 -1.9559999704360962,-14.071999549865723 0,-14.071999549865723 C1.9279999732971191,-14.071999549865723 3.6080000400543213,-13.795000076293945 5.034999847412109,-13.241000175476074 C6.464000225067139,-12.685999870300293 7.6519999504089355,-11.918999671936035 8.604000091552734,-10.944000244140625 C9.555000305175781,-9.967000007629395 10.281999588012695,-8.831000328063965 10.782999992370605,-7.538000106811523 C11.28499984741211,-6.243000030517578 11.576000213623047,-4.84499979019165 11.656999588012695,-3.3399999141693115 C11.682999610900879,-2.8389999866485596 11.701000213623047,-2.2839999198913574 11.715999603271484,-1.6770000457763672 C11.729000091552734,-1.069000005722046 11.736000061035156,-0.4429999887943268 11.736000061035156,0.20399999618530273 C11.736000061035156,0.8519999980926514 11.729000091552734,1.4780000448226929 11.715999603271484,2.0850000381469727 C11.701000213623047,2.693000078201294 11.682999610900879,3.247999906539917 11.656999588012695,3.747999906539917 C11.576000213623047,5.2270002365112305 11.291999816894531,6.61899995803833 10.803999900817871,7.927999973297119 C10.3149995803833,9.232999801635742 9.593999862670898,10.368000030517578 8.642999649047852,11.331999778747559 C7.691999912261963,12.295999526977539 6.494999885559082,13.055000305175781 5.054999828338623,13.609000205993652 C3.615000009536743,14.163000106811523 1.9279999732971191,14.440999984741211 0,14.440999984741211 C-1.9559999704360962,14.440999984741211 -3.6480000019073486,14.163000106811523 -5.074999809265137,13.609000205993652 C-6.502999782562256,13.055000305175781 -7.691999912261963,12.295999526977539 -8.642999649047852,11.331999778747559 C-9.593999862670898,10.368000030517578 -10.3149995803833,9.232999801635742 -10.803999900817871,7.927999973297119 C-11.293999671936035,6.61899995803833 -11.576000213623047,5.2270002365112305 -11.656999588012695,3.747999906539917 C-11.682999610900879,3.247999906539917 -11.704000473022461,2.693000078201294 -11.715999603271484,2.0850000381469727 C-11.729000091552734,1.4780000448226929 -11.736000061035156,0.8519999980926514 -11.736000061035156,0.20399999618530273 C-11.736000061035156,-0.4429999887943268 -11.729000091552734,-1.069000005722046 -11.715999603271484,-1.6770000457763672 C-11.704000473022461,-2.2839999198913574 -11.682999610900879,-2.8389999866485596 -11.656999588012695,-3.3399999141693115z M6.303999900817871,-3.1419999599456787 C6.198999881744385,-5.043000221252441 5.583000183105469,-6.513999938964844 4.460000038146973,-7.558000087738037 C3.3369998931884766,-8.60099983215332 1.850000023841858,-9.121999740600586 0,-9.121999740600586 C-1.850000023841858,-9.121999740600586 -3.3380000591278076,-8.60099983215332 -4.460999965667725,-7.558000087738037 C-5.584000110626221,-6.513999938964844 -6.199999809265137,-5.043000221252441 -6.303999900817871,-3.1429998874664307 C-6.35699987411499,-2.1389999389648438 -6.383999824523926,-1.0230000019073486 -6.383999824523926,0.20399999618530273 C-6.383999824523926,1.4320000410079956 -6.35699987411499,2.546999931335449 -6.303999900817871,3.5510001182556152 C-6.199999809265137,5.451000213623047 -5.584000110626221,6.915999889373779 -4.460999965667725,7.946000099182129 C-3.3380000591278076,8.97599983215332 -1.850000023841858,9.489999771118164 0,9.489999771118164 C1.850000023841858,9.489999771118164 3.3369998931884766,8.97599983215332 4.460000038146973,7.946000099182129 C5.583000183105469,6.915999889373779 6.197999954223633,5.451000213623047 6.303999900817871,3.5510001182556152 C6.35699987411499,2.546999931335449 6.382999897003174,1.4320000410079956 6.382999897003174,0.20399999618530273 C6.382999897003174,-1.0230000019073486 6.35699987411499,-2.1389999389648438 6.303999900817871,-3.1419999599456787z"></path></g></g><g transform="matrix(1,0,0,1,6,11)" opacity="1" style="display: block;"><g opacity="1" transform="matrix(1,0,0,1,306.6130065917969,14.161999702453613)"><path fill="rgb(255,255,255)" fill-opacity="1" d=" M0.7940000295639038,-13.838000297546387 C3.992000102996826,-13.838000297546387 6.47599983215332,-13.086000442504883 8.246999740600586,-11.581000328063965 C10.017999649047852,-10.076000213623047 10.902999877929688,-7.869999885559082 10.902999877929688,-4.9679999351501465 C10.902999877929688,-2.062999963760376 10.017999649047852,0.1550000011920929 8.246999740600586,1.6859999895095825 C6.47599983215332,3.2170000076293945 3.992000102996826,3.9830000400543213 0.7940000295639038,3.9830000400543213 C0.7940000295639038,3.9830000400543213 -5.550000190734863,3.9830000400543213 -5.550000190734863,3.9830000400543213 C-5.550000190734863,3.9830000400543213 -5.550000190734863,12.814000129699707 -5.550000190734863,12.814000129699707 C-5.550000190734863,13.104000091552734 -5.656000137329102,13.355999946594238 -5.867000102996826,13.565999984741211 C-6.078999996185303,13.779000282287598 -6.329999923706055,13.883000373840332 -6.619999885559082,13.883000373840332 C-6.619999885559082,13.883000373840332 -9.831999778747559,13.883000373840332 -9.831999778747559,13.883000373840332 C-10.123000144958496,13.883000373840332 -10.37399959564209,13.779000282287598 -10.585000038146973,13.565999984741211 C-10.79800033569336,13.355999946594238 -10.902999877929688,13.104000091552734 -10.902999877929688,12.814000129699707 C-10.902999877929688,12.814000129699707 -10.902999877929688,-12.769000053405762 -10.902999877929688,-12.769000053405762 C-10.902999877929688,-13.059000015258789 -10.79800033569336,-13.3100004196167 -10.585000038146973,-13.520999908447266 C-10.37399959564209,-13.732999801635742 -10.123000144958496,-13.838000297546387 -9.831999778747559,-13.838000297546387 C-9.831999778747559,-13.838000297546387 0.7940000295639038,-13.838000297546387 0.7940000295639038,-13.838000297546387z M-5.550000190734863,-0.9679999947547913 C-5.550000190734863,-0.9679999947547913 0.5960000157356262,-0.9679999947547913 0.5960000157356262,-0.9679999947547913 C2.1010000705718994,-0.9679999947547913 3.303999900817871,-1.2640000581741333 4.203000068664551,-1.8589999675750732 C5.10099983215332,-2.453000068664551 5.551000118255615,-3.489000082015991 5.551000118255615,-4.9679999351501465 C5.551000118255615,-6.445000171661377 5.10099983215332,-7.4679999351501465 4.203000068664551,-8.03600025177002 C3.303999900817871,-8.602999687194824 2.1010000705718994,-8.887999534606934 0.5960000157356262,-8.887999534606934 C0.5960000157356262,-8.887999534606934 -5.550000190734863,-8.887999534606934 -5.550000190734863,-8.887999534606934 C-5.550000190734863,-8.887999534606934 -5.550000190734863,-0.9679999947547913 -5.550000190734863,-0.9679999947547913z"></path></g></g><g transform="matrix(1,0,0,1,6,11)" opacity="1" style="display: block;"><g opacity="1" transform="matrix(1,0,0,1,67.9469985961914,14.161999702453613)"><path fill="rgb(255,255,255)" fill-opacity="1" d=" M0.7929999828338623,-13.838000297546387 C3.990999937057495,-13.838000297546387 6.474999904632568,-13.086000442504883 8.246000289916992,-11.581000328063965 C10.017000198364258,-10.076000213623047 10.902000427246094,-7.869999885559082 10.902000427246094,-4.9670000076293945 C10.902000427246094,-2.062999963760376 10.017000198364258,0.15600000321865082 8.246000289916992,1.6859999895095825 C6.474999904632568,3.2179999351501465 3.990999937057495,3.9830000400543213 0.7929999828338623,3.9830000400543213 C0.7929999828338623,3.9830000400543213 -5.551000118255615,3.9830000400543213 -5.551000118255615,3.9830000400543213 C-5.551000118255615,3.9830000400543213 -5.551000118255615,12.814000129699707 -5.551000118255615,12.814000129699707 C-5.551000118255615,13.104000091552734 -5.6570000648498535,13.355999946594238 -5.868000030517578,13.565999984741211 C-6.079999923706055,13.777000427246094 -6.330999851226807,13.883999824523926 -6.622000217437744,13.883999824523926 C-6.622000217437744,13.883999824523926 -9.833000183105469,13.883999824523926 -9.833000183105469,13.883999824523926 C-10.12399959564209,13.883999824523926 -10.375,13.777000427246094 -10.586000442504883,13.565999984741211 C-10.79800033569336,13.355999946594238 -10.902000427246094,13.104000091552734 -10.902000427246094,12.814000129699707 C-10.902000427246094,12.814000129699707 -10.902000427246094,-12.769000053405762 -10.902000427246094,-12.769000053405762 C-10.902000427246094,-13.059000015258789 -10.79800033569336,-13.3100004196167 -10.586000442504883,-13.520999908447266 C-10.375,-13.732000350952148 -10.12399959564209,-13.838000297546387 -9.833000183105469,-13.838000297546387 C-9.833000183105469,-13.838000297546387 0.7929999828338623,-13.838000297546387 0.7929999828338623,-13.838000297546387z M-5.551000118255615,-0.9670000076293945 C-5.551000118255615,-0.9670000076293945 0.593999981880188,-0.9670000076293945 0.593999981880188,-0.9670000076293945 C2.1010000705718994,-0.9670000076293945 3.302999973297119,-1.2640000581741333 4.202000141143799,-1.8589999675750732 C5.099999904632568,-2.4519999027252197 5.550000190734863,-3.489000082015991 5.550000190734863,-4.9670000076293945 C5.550000190734863,-6.443999767303467 5.099999904632568,-7.4670000076293945 4.202000141143799,-8.03600025177002 C3.302999973297119,-8.602999687194824 2.1010000705718994,-8.887999534606934 0.593999981880188,-8.887999534606934 C0.593999981880188,-8.887999534606934 -5.551000118255615,-8.887999534606934 -5.551000118255615,-8.887999534606934 C-5.551000118255615,-8.887999534606934 -5.551000118255615,-0.9670000076293945 -5.551000118255615,-0.9670000076293945z"></path></g></g><g transform="matrix(1,0,0,1,6,11)" opacity="1" style="display: block;"><g opacity="1" transform="matrix(1,0,0,1,93.81700134277344,14.161999702453613)"><path fill="rgb(255,255,255)" fill-opacity="1" d=" M0.7929999828338623,-13.838000297546387 C3.990999937057495,-13.838000297546387 6.47599983215332,-13.086000442504883 8.246000289916992,-11.581000328063965 C10.017999649047852,-10.076000213623047 10.902000427246094,-7.869999885559082 10.902000427246094,-4.9670000076293945 C10.902000427246094,-2.062999963760376 10.017999649047852,0.15600000321865082 8.246000289916992,1.6859999895095825 C6.47599983215332,3.2179999351501465 3.990999937057495,3.9830000400543213 0.7929999828338623,3.9830000400543213 C0.7929999828338623,3.9830000400543213 -5.550000190734863,3.9830000400543213 -5.550000190734863,3.9830000400543213 C-5.550000190734863,3.9830000400543213 -5.550000190734863,12.814000129699707 -5.550000190734863,12.814000129699707 C-5.550000190734863,13.104000091552734 -5.6570000648498535,13.355999946594238 -5.867000102996826,13.565999984741211 C-6.078999996185303,13.777000427246094 -6.329999923706055,13.883999824523926 -6.622000217437744,13.883999824523926 C-6.622000217437744,13.883999824523926 -9.833000183105469,13.883999824523926 -9.833000183105469,13.883999824523926 C-10.123000144958496,13.883999824523926 -10.375,13.777000427246094 -10.585000038146973,13.565999984741211 C-10.79800033569336,13.355999946594238 -10.902000427246094,13.104000091552734 -10.902000427246094,12.814000129699707 C-10.902000427246094,12.814000129699707 -10.902000427246094,-12.769000053405762 -10.902000427246094,-12.769000053405762 C-10.902000427246094,-13.059000015258789 -10.79800033569336,-13.3100004196167 -10.585000038146973,-13.520999908447266 C-10.375,-13.732000350952148 -10.123000144958496,-13.838000297546387 -9.833000183105469,-13.838000297546387 C-9.833000183105469,-13.838000297546387 0.7929999828338623,-13.838000297546387 0.7929999828338623,-13.838000297546387z M-5.550000190734863,-0.9670000076293945 C-5.550000190734863,-0.9670000076293945 0.5950000286102295,-0.9670000076293945 0.5950000286102295,-0.9670000076293945 C2.1019999980926514,-0.9670000076293945 3.305000066757202,-1.2640000581741333 4.202000141143799,-1.8589999675750732 C5.1020002365112305,-2.4519999027252197 5.551000118255615,-3.48799991607666 5.551000118255615,-4.9670000076293945 C5.551000118255615,-6.443999767303467 5.1020002365112305,-7.4670000076293945 4.202000141143799,-8.03600025177002 C3.305000066757202,-8.602999687194824 2.1019999980926514,-8.887999534606934 0.5950000286102295,-8.887999534606934 C0.5950000286102295,-8.887999534606934 -5.550000190734863,-8.887999534606934 -5.550000190734863,-8.887999534606934 C-5.550000190734863,-8.887999534606934 -5.550000190734863,-0.9670000076293945 -5.550000190734863,-0.9670000076293945z"></path></g></g><g transform="matrix(1,0,0,1,6,11)" opacity="1" style="display: block;"><g opacity="1" transform="matrix(1,0,0,1,280.42999267578125,14.16100025177002)"><path fill="rgb(255,255,255)" fill-opacity="1" d=" M0.4180000126361847,-13.83899974822998 C3.7200000286102295,-13.83899974822998 6.23199987411499,-13.072999954223633 7.949999809265137,-11.541999816894531 C9.668999671936035,-10.008999824523926 10.527999877929688,-7.885000228881836 10.527999877929688,-5.165999889373779 C10.527999877929688,-3.23799991607666 10.085000038146973,-1.593999981880188 9.199000358581543,-0.23600000143051147 C8.312999725341797,1.125 7.01200008392334,2.134999990463257 5.295000076293945,2.7939999103546143 C5.295000076293945,2.7939999103546143 10.765000343322754,12.574999809265137 10.765000343322754,12.574999809265137 C10.843999862670898,12.736000061035156 10.883999824523926,12.878999710083008 10.883999824523926,13.01099967956543 C10.883999824523926,13.24899959564209 10.79800033569336,13.454000473022461 10.626999855041504,13.625 C10.454000473022461,13.79800033569336 10.24899959564209,13.883000373840332 10.01200008392334,13.883000373840332 C10.01200008392334,13.883000373840332 6.642000198364258,13.883000373840332 6.642000198364258,13.883000373840332 C6.111999988555908,13.883000373840332 5.7230000495910645,13.758000373840332 5.4720001220703125,13.506999969482422 C5.2210001945495605,13.256999969482422 5.043000221252441,13.027000427246094 4.936999797821045,12.8149995803833 C4.936999797821045,12.8149995803833 -0.25699999928474426,3.5859999656677246 -0.25699999928474426,3.5859999656677246 C-0.25699999928474426,3.5859999656677246 -5.53000020980835,3.5859999656677246 -5.53000020980835,3.5859999656677246 C-5.53000020980835,3.5859999656677246 -5.53000020980835,12.8149995803833 -5.53000020980835,12.8149995803833 C-5.53000020980835,13.104000091552734 -5.635000228881836,13.355999946594238 -5.8470001220703125,13.565999984741211 C-6.058000087738037,13.779000282287598 -6.309000015258789,13.883000373840332 -6.599999904632568,13.883000373840332 C-6.599999904632568,13.883000373840332 -9.812000274658203,13.883000373840332 -9.812000274658203,13.883000373840332 C-10.10200023651123,13.883000373840332 -10.354000091552734,13.779000282287598 -10.5649995803833,13.565999984741211 C-10.777999877929688,13.355999946594238 -10.883000373840332,13.104000091552734 -10.883000373840332,12.8149995803833 C-10.883000373840332,12.8149995803833 -10.883000373840332,-12.767999649047852 -10.883000373840332,-12.767999649047852 C-10.883000373840332,-13.0600004196167 -10.777999877929688,-13.309000015258789 -10.5649995803833,-13.522000312805176 C-10.352999687194824,-13.732000350952148 -10.10200023651123,-13.83899974822998 -9.812000274658203,-13.83899974822998 C-9.812000274658203,-13.83899974822998 0.4180000126361847,-13.83899974822998 0.4180000126361847,-13.83899974822998z M-5.53000020980835,-1.3639999628067017 C-5.53000020980835,-1.3639999628067017 0.21899999678134918,-1.3639999628067017 0.21899999678134918,-1.3639999628067017 C1.7259999513626099,-1.3639999628067017 2.927999973297119,-1.6269999742507935 3.8259999752044678,-2.1559998989105225 C4.72599983215332,-2.683000087738037 5.175000190734863,-3.686000108718872 5.175000190734863,-5.165999889373779 C5.175000190734863,-6.644000053405762 4.72599983215332,-7.632999897003174 3.8259999752044678,-8.135000228881836 C2.927999973297119,-8.63700008392334 1.7259999513626099,-8.887999534606934 0.21899999678134918,-8.887999534606934 C0.21899999678134918,-8.887999534606934 -5.53000020980835,-8.887999534606934 -5.53000020980835,-8.887999534606934 C-5.53000020980835,-8.887999534606934 -5.53000020980835,-1.3639999628067017 -5.53000020980835,-1.3639999628067017z"></path></g></g><g transform="matrix(1,0,0,1,6,11)" opacity="1" style="display: block;"><g opacity="1" transform="matrix(1,0,0,1,118.75499725341797,14.161999702453613)"><path fill="rgb(255,255,255)" fill-opacity="1" d=" M11.062000274658203,-13.838000297546387 C11.352999687194824,-13.838000297546387 11.60200023651123,-13.730999946594238 11.814000129699707,-13.520999908447266 C12.027000427246094,-13.3100004196167 12.133000373840332,-13.059000015258789 12.133000373840332,-12.767999649047852 C12.133000373840332,-12.63599967956543 12.107000350952148,-12.517999649047852 12.053000450134277,-12.411999702453613 C12.053000450134277,-12.411999702453613 2.6570000648498535,4.1020002365112305 2.6570000648498535,4.1020002365112305 C2.6570000648498535,4.1020002365112305 2.6570000648498535,12.8149995803833 2.6570000648498535,12.8149995803833 C2.6570000648498535,13.104000091552734 2.549999952316284,13.355999946594238 2.3389999866485596,13.565999984741211 C2.128999948501587,13.777000427246094 1.8760000467300415,13.883000373840332 1.5850000381469727,13.883000373840332 C1.5850000381469727,13.883000373840332 -1.5850000381469727,13.883000373840332 -1.5850000381469727,13.883000373840332 C-1.8769999742507935,13.883000373840332 -2.128000020980835,13.777000427246094 -2.3399999141693115,13.565999984741211 C-2.5510001182556152,13.355999946594238 -2.6570000648498535,13.104000091552734 -2.6570000648498535,12.8149995803833 C-2.6570000648498535,12.8149995803833 -2.6570000648498535,4.1020002365112305 -2.6570000648498535,4.1020002365112305 C-2.6570000648498535,4.1020002365112305 -12.052000045776367,-12.411999702453613 -12.052000045776367,-12.411999702453613 C-12.105999946594238,-12.517999649047852 -12.133000373840332,-12.63599967956543 -12.133000373840332,-12.767999649047852 C-12.133000373840332,-13.059000015258789 -12.026000022888184,-13.3100004196167 -11.814000129699707,-13.520999908447266 C-11.602999687194824,-13.732000350952148 -11.352999687194824,-13.838000297546387 -11.062000274658203,-13.838000297546387 C-11.062000274658203,-13.838000297546387 -8.08899974822998,-13.838000297546387 -8.08899974822998,-13.838000297546387 C-7.559999942779541,-13.838000297546387 -7.163000106811523,-13.706000328063965 -6.8979997634887695,-13.442000389099121 C-6.633999824523926,-13.177000045776367 -6.4770002365112305,-12.979999542236328 -6.423999786376953,-12.847999572753906 C-6.423999786376953,-12.847999572753906 0.0010000000474974513,-1.6410000324249268 0.0010000000474974513,-1.6410000324249268 C0.0010000000474974513,-1.6410000324249268 6.423999786376953,-12.847999572753906 6.423999786376953,-12.847999572753906 C6.47599983215332,-12.979999542236328 6.635000228881836,-13.177000045776367 6.900000095367432,-13.442000389099121 C7.164000034332275,-13.706000328063965 7.559999942779541,-13.838000297546387 8.08899974822998,-13.838000297546387 C8.08899974822998,-13.838000297546387 11.062000274658203,-13.838000297546387 11.062000274658203,-13.838000297546387z"></path></g></g><g transform="matrix(1.0299999713897705,0,0,1.0299999713897705,1.230010986328125,10.579999923706055)" opacity="1" style="display: block;"><g opacity="1" transform="matrix(1,0,0,1,198.03199768066406,14.11299991607666)"><path fill="rgb(255,255,255)" fill-opacity="1" d=" M-10.628999710083008,13.902999877929688 C-10.894000053405762,13.902999877929688 -11.119000434875488,13.8100004196167 -11.303999900817871,13.62600040435791 C-11.48900032043457,13.4399995803833 -11.581999778747559,13.215999603271484 -11.581999778747559,12.951000213623047 C-11.581999778747559,12.951000213623047 -10.956999778747559,-14.144000053405762 -10.956999778747559,-14.144000053405762 C-10.956999778747559,-14.4350004196167 -10.871000289916992,-14.673999786376953 -10.699000358581543,-14.859000205993652 C-10.526000022888184,-15.043999671936035 -10.295000076293945,-15.13700008392334 -10.003999710083008,-15.13700008392334 C-10.003999710083008,-15.13700008392334 -6.9070000648498535,-15.13700008392334 -6.9070000648498535,-15.13700008392334 C-6.4039998054504395,-15.13700008392334 -6.020999908447266,-14.911999702453613 -5.75600004196167,-14.461999893188477 C-5.75600004196167,-14.461999893188477 5.5980000495910645,4.414999961853027 5.5980000495910645,4.414999961853027 C5.5980000495910645,4.414999961853027 5.5980000495910645,-12.894000053405762 5.5980000495910645,-12.894000053405762 C5.5980000495910645,-13.1850004196167 5.684000015258789,-13.423999786376953 5.855999946594238,-13.609000205993652 C6.0279998779296875,-13.793999671936035 6.260000228881836,-13.88700008392334 6.551000118255615,-13.88700008392334 C6.551000118255615,-13.88700008392334 9.96500015258789,-13.88700008392334 9.96500015258789,-13.88700008392334 C10.255999565124512,-13.88700008392334 10.494000434875488,-13.793999671936035 10.680000305175781,-13.609000205993652 C10.864999771118164,-13.423999786376953 10.956999778747559,-13.1850004196167 10.956999778747559,-12.894000053405762 C10.956999778747559,-12.894000053405762 10.956999778747559,12.91100025177002 10.956999778747559,12.91100025177002 C10.956999778747559,13.20199966430664 10.864999771118164,13.4399995803833 10.680000305175781,13.62600040435791 C10.494000434875488,13.8100004196167 10.269000053405762,13.902999877929688 10.005000114440918,13.902999877929688 C10.005000114440918,13.902999877929688 6.868000030517578,13.902999877929688 6.868000030517578,13.902999877929688 C6.339000225067139,13.902999877929688 5.941999912261963,13.678000450134277 5.677999973297119,13.227999687194824 C5.677999973297119,13.227999687194824 -5.63700008392334,-4.000999927520752 -5.63700008392334,-4.000999927520752 C-5.63700008392334,-4.000999927520752 -5.01200008392334,12.951000213623047 -5.01200008392334,12.951000213623047 C-5.01200008392334,13.215999603271484 -5.0980000495910645,13.4399995803833 -5.270999908447266,13.62600040435791 C-5.441999912261963,13.8100004196167 -5.673999786376953,13.902999877929688 -5.965000152587891,13.902999877929688 C-5.965000152587891,13.902999877929688 -10.628999710083008,13.902999877929688 -10.628999710083008,13.902999877929688z"></path></g></g><g transform="matrix(1.0299999713897705,0,0,1.0299999713897705,1.230010986328125,10.579999923706055)" opacity="1" style="display: block;"><g opacity="1" transform="matrix(1,0,0,1,169.01300048828125,14.11299991607666)"><path fill="rgb(255,255,255)" fill-opacity="1" d=" M0.03999999910593033,16.299999237060547 C-3.559999942779541,16.299999237060547 -6.3520002365112305,15.38700008392334 -8.336999893188477,13.560999870300293 C-10.321999549865723,11.734999656677246 -11.314000129699707,8.218999862670898 -11.314000129699707,4.513000011444092 C-11.314000129699707,4.513000011444092 -11.842000007629395,-8.61299991607666 -11.842000007629395,-8.61299991607666 C-11.842000007629395,-8.61299991607666 -11.939000129699707,-11.020000457763672 -11.939000129699707,-11.020000457763672 C-11.939000129699707,-11.310999870300293 -11.854000091552734,-11.548999786376953 -11.682000160217285,-11.734000205993652 C-11.508999824523926,-11.920000076293945 -11.277999877929688,-12.01200008392334 -10.987000465393066,-12.01200008392334 C-10.987000465393066,-12.01200008392334 -7.334000110626221,-12.01200008392334 -7.334000110626221,-12.01200008392334 C-7.043000221252441,-12.01200008392334 -6.804999828338623,-11.920000076293945 -6.619999885559082,-11.734000205993652 C-6.434999942779541,-11.548999786376953 -6.3420000076293945,-11.310999870300293 -6.3420000076293945,-11.020000457763672 C-6.3420000076293945,-11.020000457763672 -6.230000019073486,-8.234999656677246 -6.230000019073486,-8.234999656677246 C-6.230000019073486,-8.234999656677246 -5.7170000076293945,4.513000011444092 -5.7170000076293945,4.513000011444092 C-5.7170000076293945,6.604000091552734 -5.2210001945495605,8.178999900817871 -4.229000091552734,9.23799991607666 C-3.234999895095825,10.295999526977539 -1.8259999752044678,10.824999809265137 0,10.824999809265137 C1.8259999752044678,10.824999809265137 3.234999895095825,10.295999526977539 4.2270002365112305,9.23799991607666 C5.2210001945495605,8.178999900817871 5.7170000076293945,6.604000091552734 5.7170000076293945,4.513000011444092 C5.7170000076293945,4.513000011444092 6.3420000076293945,-11.020000457763672 6.3420000076293945,-11.020000457763672 C6.3420000076293945,-11.310999870300293 6.434999942779541,-11.548999786376953 6.619999885559082,-11.734000205993652 C6.804999828338623,-11.920000076293945 7.043000221252441,-12.01200008392334 7.334000110626221,-12.01200008392334 C7.334000110626221,-12.01200008392334 10.986000061035156,-12.01200008392334 10.986000061035156,-12.01200008392334 C11.277000427246094,-12.01200008392334 11.510000228881836,-11.920000076293945 11.682000160217285,-11.734000205993652 C11.852999687194824,-11.548999786376953 11.939000129699707,-11.310999870300293 11.939000129699707,-11.020000457763672 C11.939000129699707,-11.020000457763672 11.314000129699707,4.513000011444092 11.314000129699707,4.513000011444092 C11.314000129699707,8.218999862670898 10.329000473022461,11.734999656677246 8.355999946594238,13.560999870300293 C6.385000228881836,15.38700008392334 3.611999988555908,16.299999237060547 0.03999999910593033,16.299999237060547z"></path></g></g><g transform="matrix(1.0299999713897705,0,0,1.0299999713897705,1.230010986328125,10.579999923706055)" opacity="1" style="display: block;"><g opacity="1" transform="matrix(1,0,0,1,144.66700744628906,14.11299991607666)"><path fill="rgb(255,255,255)" fill-opacity="1" d=" M-8.654000282287598,13.902999877929688 C-8.918999671936035,13.902999877929688 -9.142999649047852,13.8100004196167 -9.329000473022461,13.62600040435791 C-9.513999938964844,13.4399995803833 -9.607000350952148,13.215999603271484 -9.607000350952148,12.951000213623047 C-9.607000350952148,12.951000213623047 -9.607000350952148,-12.894000053405762 -9.607000350952148,-12.894000053405762 C-9.607000350952148,-13.1850004196167 -9.522000312805176,-13.423999786376953 -9.350000381469727,-13.609000205993652 C-9.177000045776367,-13.793999671936035 -8.944999694824219,-13.88700008392334 -8.654000282287598,-13.88700008392334 C-8.654000282287598,-13.88700008392334 8.303000450134277,-15.309000015258789 8.303000450134277,-15.309000015258789 C8.593999862670898,-15.309000015258789 8.831999778747559,-15.215999603271484 9.017000198364258,-15.031000137329102 C9.20199966430664,-14.845999717712402 9.295000076293945,-14.607000350952148 9.295000076293945,-14.315999984741211 C9.295000076293945,-14.315999984741211 9.295000076293945,-10.833000183105469 9.295000076293945,-10.833000183105469 C9.295000076293945,-10.567999839782715 9.20199966430664,-10.343000411987305 9.017000198364258,-10.157999992370605 C8.831999778747559,-9.972999572753906 8.593999862670898,-9.880000114440918 8.303000450134277,-9.880000114440918 C8.303000450134277,-9.880000114440918 -4.401000022888184,-9.083000183105469 -4.401000022888184,-9.083000183105469 C-4.401000022888184,-9.083000183105469 -4.401000022888184,-1.61899995803833 -4.401000022888184,-1.61899995803833 C-4.401000022888184,-1.61899995803833 7.508999824523926,-2.0880000591278076 7.508999824523926,-2.0880000591278076 C7.800000190734863,-2.0880000591278076 8.038000106811523,-1.996000051498413 8.222999572753906,-1.8109999895095825 C8.407999992370605,-1.625 8.50100040435791,-1.399999976158142 8.50100040435791,-1.1360000371932983 C8.50100040435791,-1.1360000371932983 8.50100040435791,2.6610000133514404 8.50100040435791,2.6610000133514404 C8.50100040435791,2.9260001182556152 8.407999992370605,3.1500000953674316 8.222999572753906,3.3359999656677246 C8.038000106811523,3.5209999084472656 7.800000190734863,3.61299991607666 7.508999824523926,3.61299991607666 C7.508999824523926,3.61299991607666 -4.401000022888184,3.1440000534057617 -4.401000022888184,3.1440000534057617 C-4.401000022888184,3.1440000534057617 -4.401000022888184,12.951000213623047 -4.401000022888184,12.951000213623047 C-4.401000022888184,13.215999603271484 -4.49399995803833,13.4399995803833 -4.678999900817871,13.62600040435791 C-4.863999843597412,13.8100004196167 -5.103000164031982,13.902999877929688 -5.394000053405762,13.902999877929688 C-5.394000053405762,13.902999877929688 -8.654000282287598,13.902999877929688 -8.654000282287598,13.902999877929688z"></path></g></g><g transform="matrix(1,0,0,1.0833300352096558,183.875,30.958261489868164)" opacity="1" style="display: block;"><g opacity="1" transform="matrix(1,0,0,1,0.8429999947547913,-22.593000411987305)"><path fill="rgb(255,255,255)" fill-opacity="1" d=" M4,-0.20000000298023224 C4,-0.20000000298023224 4,-0.20000000298023224 4,-0.20000000298023224 C4,0.35190001130104065 3.5518999099731445,0.800000011920929 3,0.800000011920929 C3,0.800000011920929 -3,0.800000011920929 -3,0.800000011920929 C-3.5518999099731445,0.800000011920929 -4,0.35190001130104065 -4,-0.20000000298023224 C-4,-0.20000000298023224 -4,-0.20000000298023224 -4,-0.20000000298023224 C-4,-0.7519000172615051 -3.5518999099731445,-1.2000000476837158 -3,-1.2000000476837158 C-3,-1.2000000476837158 3,-1.2000000476837158 3,-1.2000000476837158 C3.5518999099731445,-1.2000000476837158 4,-0.7519000172615051 4,-0.20000000298023224z"></path></g></g><g transform="matrix(1,0,0,1.0833300352096558,166.25,29.958261489868164)" opacity="1" style="display: block;"><g opacity="1" transform="matrix(1,0,0,1,0.5929999947547913,-22.343000411987305)"><path fill="rgb(255,255,255)" fill-opacity="1" d=" M4,-0.949999988079071 C4,-0.949999988079071 4,0.550000011920929 4,0.550000011920929 C4,1.1018999814987183 3.5518999099731445,1.5499999523162842 3,1.5499999523162842 C3,1.5499999523162842 -3,1.5499999523162842 -3,1.5499999523162842 C-3.5518999099731445,1.5499999523162842 -4,1.1018999814987183 -4,0.550000011920929 C-4,0.550000011920929 -4,-0.949999988079071 -4,-0.949999988079071 C-4,-1.5018999576568604 -3.5518999099731445,-1.9500000476837158 -3,-1.9500000476837158 C-3,-1.9500000476837158 3,-1.9500000476837158 3,-1.9500000476837158 C3.5518999099731445,-1.9500000476837158 4,-1.5018999576568604 4,-0.949999988079071z"></path><path fill="rgb(255,255,255)" fill-opacity="1" d=" M4,-0.949999988079071 C4,-0.949999988079071 4,0.550000011920929 4,0.550000011920929 C4,1.1018999814987183 3.5518999099731445,1.5499999523162842 3,1.5499999523162842 C3,1.5499999523162842 -3,1.5499999523162842 -3,1.5499999523162842 C-3.5518999099731445,1.5499999523162842 -4,1.1018999814987183 -4,0.550000011920929 C-4,0.550000011920929 -4,-0.949999988079071 -4,-0.949999988079071 C-4,-1.5018999576568604 -3.5518999099731445,-1.9500000476837158 -3,-1.9500000476837158 C-3,-1.9500000476837158 3,-1.9500000476837158 3,-1.9500000476837158 C3.5518999099731445,-1.9500000476837158 4,-1.5018999576568604 4,-0.949999988079071z"></path></g></g></g></svg>
